 <svg  version="1.0" xmlns="http://www.w3.org/2000/svg"  width="900.000000pt" height="234.000000pt" viewBox="0 0 900.000000 234.000000"  preserveAspectRatio="xMidYMid meet">  <g transform="translate(0.000000,234.000000) scale(0.100000,-0.100000)" fill="#3464b7" stroke="none"> <path d="M4315 2103 c-43 -23 -111 -84 -149 -135 -22 -29 -37 -67 -49 -118 -19 -86 -44 -274 -53 -402 -8 -108 -16 -118 -82 -95 -62 22 -206 23 -264 1 -112 -42 -177 -90 -248 -185 -63 -84 -106 -178 -135 -294 -42 -169 -173 -353 -297 -416 -24 -12 -58 -19 -96 -19 -49 0 -66 5 -99 29 -40 29 -93 106 -93 135 0 14 28 26 105 45 138 33 273 126 342 235 63 98 82 248 44 332 -24 53 -77 105 -134 133 -38 19 -62 22 -144 21 -147 -1 -249 -42 -345 -141 -92 -95 -137 -190 -182 -383 -31 -131 -178 -331 -283 -385 -56 -28 -145 -29 -190 -1 -36 22 -90 91 -100 128 -7 30 5 38 77 53 150 32 327 157 384 274 52 106 58 251 14 324 -30 49 -61 77 -118 106 -42 22 -63 25 -146 25 -157 0 -275 -54 -374 -172 -98 -117 -131 -204 -157 -417 -15 -122 -15 -141 0 -221 19 -107 54 -181 118 -254 109 -121 263 -164 418 -116 130 41 191 78 278 166 44 46 86 84 92 84 6 0 27 -26 47 -58 70 -111 139 -165 249 -197 153 -45 368 27 502 168 96 100 87 98 123 27 109 -216 340 -274 506 -126 30 26 61 61 70 77 23 45 50 38 58 -15 12 -79 71 -125 180 -141 94 -14 206 56 302 191 25 35 50 62 54 59 5 -3 16 -28 25 -56 20 -58 62 -110 120 -147 36 -23 50 -26 140 -27 92 0 106 3 177 33 42 18 82 40 89 48 20 24 52 16 173 -41 219 -104 308 -129 443 -123 127 6 174 27 271 125 40 40 77 73 84 73 6 0 33 -20 59 -45 68 -63 128 -88 214 -89 55 -1 81 4 119 23 46 23 136 104 136 122 0 25 33 4 46 -28 23 -55 50 -80 111 -103 135 -50 251 0 366 158 17 23 38 42 47 42 11 0 29 -23 49 -65 38 -76 83 -117 157 -140 91 -28 180 -5 263 70 21 19 45 35 53 35 8 0 31 -15 50 -34 78 -76 173 -100 274 -71 149 43 232 134 318 349 20 49 36 96 36 106 0 34 33 61 80 67 180 21 390 186 390 306 0 41 -25 67 -66 67 -34 0 -72 -23 -133 -79 -40 -37 -130 -81 -166 -81 -43 0 -45 7 -45 137 0 157 -23 244 -80 304 -36 38 -38 39 -109 39 -52 0 -83 -5 -111 -20 -46 -24 -105 -98 -120 -151 -13 -46 -34 -55 -67 -29 -79 62 -211 -32 -270 -194 -40 -111 -53 -190 -53 -341 l0 -150 -31 -38 c-24 -29 -37 -37 -57 -35 -43 5 -63 75 -69 238 -5 135 0 172 32 260 31 83 65 234 65 287 0 41 -5 58 -26 82 -37 45 -88 43 -175 -7 -165 -93 -182 -135 -214 -521 -4 -47 -13 -76 -35 -113 -16 -26 -30 -52 -30 -56 -1 -17 -88 -117 -104 -120 -17 -4 -18 8 -13 200 4 173 8 213 26 268 25 74 51 208 51 261 0 47 -17 98 -43 127 -38 42 -114 27 -198 -39 -45 -35 -52 -35 -92 -5 -69 51 -112 66 -194 66 -172 0 -304 -83 -415 -260 -33 -53 -46 -82 -83 -180 -12 -31 -19 -88 -23 -184 l-5 -138 -44 -73 c-51 -85 -55 -89 -107 -103 -75 -21 -203 5 -513 103 -17 6 -16 46 1 87 36 85 98 356 111 483 9 93 14 104 56 125 21 11 44 20 52 20 16 0 166 65 253 109 80 40 188 140 227 210 52 92 67 146 67 244 0 101 -19 150 -72 189 -122 86 -389 74 -543 -27 -102 -66 -172 -150 -245 -294 -16 -32 -39 -97 -54 -151 -44 -165 -35 -149 -100 -176 -69 -28 -96 -56 -96 -98 0 -45 12 -57 66 -71 l49 -12 3 -49 c2 -27 -4 -89 -13 -139 -9 -49 -23 -130 -32 -180 -8 -49 -20 -106 -27 -125 l-12 -35 -159 3 c-88 1 -166 2 -172 2 -19 0 -16 13 18 82 86 178 108 324 49 343 -54 17 -94 -28 -175 -195 -25 -52 -54 -111 -63 -130 -66 -134 -168 -278 -185 -261 -25 25 2 629 34 761 7 25 15 61 19 80 5 19 26 105 48 191 73 281 79 511 16 575 -29 28 -74 31 -119 7z m1460 -249 c34 -37 37 -99 8 -189 -20 -61 -105 -149 -178 -184 -28 -12 -58 -27 -67 -32 -35 -18 -58 -11 -58 18 0 74 82 290 131 344 28 31 96 69 122 69 10 0 29 -12 42 -26z m-3695 -713 c30 -57 -6 -187 -66 -242 -68 -61 -147 -88 -160 -55 -15 39 59 227 111 282 39 41 97 48 115 15z m894 -20 c20 -70 -21 -186 -83 -236 -61 -49 -139 -72 -142 -42 -3 31 4 66 22 121 28 83 52 127 91 164 26 27 40 32 68 30 30 -3 36 -8 44 -37z m977 23 c65 -19 79 -35 79 -88 -1 -94 -27 -180 -128 -431 -27 -66 -80 -149 -108 -169 -70 -50 -126 60 -140 274 -11 157 39 305 132 390 50 46 77 50 165 24z m2611 -13 c13 -5 43 -26 67 -48 l44 -39 -11 -86 c-6 -47 -19 -103 -28 -124 -9 -21 -23 -52 -29 -69 -63 -149 -116 -252 -151 -293 -25 -29 -35 -34 -57 -28 -33 8 -68 55 -92 126 -15 43 -19 84 -20 185 0 115 3 136 24 185 65 150 164 225 253 191z m1447 -217 c29 -65 73 -117 131 -154 28 -18 50 -39 50 -46 0 -26 -41 -138 -73 -198 -33 -62 -74 -90 -114 -80 -38 10 -79 87 -103 191 -9 41 -9 61 0 90 7 21 18 56 25 78 7 22 16 58 20 80 6 36 29 85 40 85 2 0 13 -21 24 -46z"/> <path d="M780 2045 c-19 -7 -43 -14 -54 -14 -36 -2 -205 -93 -258 -141 -63 -56 -109 -136 -132 -231 -20 -82 -20 -112 0 -180 24 -81 47 -120 105 -178 67 -67 136 -118 222 -165 37 -20 97 -52 135 -72 286 -155 364 -279 292 -463 -50 -126 -177 -213 -323 -220 -88 -4 -142 11 -217 61 -63 42 -84 73 -84 127 -1 44 0 45 40 57 62 18 80 30 94 64 28 69 -37 159 -128 179 -60 12 -165 -4 -211 -34 -187 -119 -196 -394 -18 -538 57 -46 126 -80 222 -108 70 -20 101 -23 250 -22 174 0 202 5 335 55 63 23 204 120 260 178 126 131 182 352 130 517 -25 81 -59 134 -134 209 -74 74 -113 100 -281 189 -44 23 -100 53 -126 67 -119 64 -204 144 -215 204 -12 65 32 143 111 199 83 59 214 58 274 -2 33 -33 33 -34 27 -101 -8 -84 12 -126 67 -136 65 -12 117 3 162 49 116 116 71 324 -88 399 -121 57 -164 66 -297 65 -79 0 -138 -5 -160 -14z"/> </g> </svg> 